<svg width="1005" height="908" xmlns="http://www.w3.org/2000/svg" xmlns:xlink="http://www.w3.org/1999/xlink" xml:space="preserve" overflow="hidden"><defs><filter id="fx0" x="-10%" y="-10%" width="120%" height="120%" filterUnits="userSpaceOnUse" primitiveUnits="userSpaceOnUse"><feComponentTransfer color-interpolation-filters="sRGB"><feFuncR type="discrete" tableValues="0 0"/><feFuncG type="discrete" tableValues="0 0"/><feFuncB type="discrete" tableValues="0 0"/><feFuncA type="linear" slope="0.2" intercept="0"/></feComponentTransfer><feGaussianBlur stdDeviation="4.58333 4.58333"/></filter><clipPath id="clip1"><rect x="2780" y="512" width="1005" height="908"/></clipPath><clipPath id="clip2"><path d="M2938.25 556.521 3620.75 556.521C3683.54 556.592 3734.43 607.509 3734.5 670.344L3734.5 1093.12C3734.43 1155.95 3683.54 1206.87 3620.75 1206.94L3279.5 1206.94C3276.86 1206.94 3274.26 1207.58 3271.93 1208.81L2993.39 1355.52 3019.18 1226.46C3020.97 1217.66 3015.31 1209.07 3006.52 1207.27 3005.45 1207.05 3004.35 1206.94 3003.25 1206.94L2938.25 1206.94C2875.46 1206.87 2824.57 1155.95 2824.5 1093.12L2824.5 670.344C2824.57 607.509 2875.46 556.592 2938.25 556.521ZM2938.25 524C2857.52 524.087 2792.09 589.558 2792 670.344L2792 1093.12C2792.09 1173.9 2857.52 1239.37 2938.25 1239.46L2983.42 1239.46 2954.82 1382.55C2953.6 1388.7 2956.02 1395.01 2961.03 1398.76 2966.05 1402.52 2972.77 1403.05 2978.32 1400.13L3283.52 1239.46 3620.75 1239.46C3701.48 1239.37 3766.91 1173.9 3767 1093.12L3767 670.344C3766.91 589.558 3701.48 524.087 3620.75 524ZM2780 512 3785 512 3785 1420 2780 1420Z" fill-rule="evenodd" clip-rule="evenodd"/></clipPath><linearGradient x1="3781.74" y1="541.569" x2="2777.26" y2="1384.43" gradientUnits="userSpaceOnUse" spreadMethod="reflect" id="fill3"><stop offset="0" stop-color="#AC4FC5"/><stop offset="0.5" stop-color="#8A97E2"/><stop offset="1" stop-color="#ADB9CA"/></linearGradient></defs><g clip-path="url(#clip1)" transform="translate(-2780 -512)"><g clip-path="url(#clip2)"><g filter="url(#fx0)" transform="translate(2779 511)"><g><path d="M844.991 16.2408 162.491 16.2408C81.7566 16.3283 16.3282 81.7989 16.2407 162.585L16.2407 585.358C16.3282 666.144 81.7566 731.615 162.491 731.702L207.662 731.702 179.066 874.79C177.837 880.945 180.256 887.25 185.271 891.004 190.286 894.758 197.014 895.293 202.561 892.37L507.757 731.702 844.991 731.702C925.725 731.615 991.153 666.144 991.241 585.358L991.241 162.585C991.153 81.7989 925.725 16.3283 844.991 16.2408ZM958.741 585.358C958.67 648.192 907.785 699.11 844.991 699.181L503.741 699.181C501.1 699.181 498.504 699.823 496.17 701.055L217.629 847.757 243.416 718.698C245.216 709.903 239.55 701.313 230.763 699.512 229.687 699.291 228.59 699.181 227.491 699.181L162.491 699.181C99.6965 699.11 48.8119 648.192 48.7408 585.358L48.7408 162.585C48.8119 99.7504 99.6965 48.8329 162.491 48.7619L844.991 48.7619C907.785 48.8329 958.67 99.7504 958.741 162.585Z" stroke="#000000" stroke-width="2" stroke-miterlimit="8" stroke-opacity="0.34902" fill="#FF0000" fill-rule="evenodd"/></g></g></g><path d="M3620.75 524 2938.25 524C2857.52 524.087 2792.09 589.558 2792 670.344L2792 1093.12C2792.09 1173.9 2857.52 1239.37 2938.25 1239.46L2983.42 1239.46 2954.82 1382.55C2953.6 1388.7 2956.02 1395.01 2961.03 1398.76 2966.05 1402.52 2972.77 1403.05 2978.32 1400.13L3283.52 1239.46 3620.75 1239.46C3701.48 1239.37 3766.91 1173.9 3767 1093.12L3767 670.344C3766.91 589.558 3701.48 524.087 3620.75 524ZM3734.5 1093.12C3734.43 1155.95 3683.54 1206.87 3620.75 1206.94L3279.5 1206.94C3276.86 1206.94 3274.26 1207.58 3271.93 1208.81L2993.39 1355.52 3019.18 1226.46C3020.97 1217.66 3015.31 1209.07 3006.52 1207.27 3005.45 1207.05 3004.35 1206.94 3003.25 1206.94L2938.25 1206.94C2875.46 1206.87 2824.57 1155.95 2824.5 1093.12L2824.5 670.344C2824.57 607.509 2875.46 556.592 2938.25 556.521L3620.75 556.521C3683.54 556.592 3734.43 607.509 3734.5 670.344Z" stroke="#000000" stroke-width="2.29167" stroke-miterlimit="8" stroke-opacity="0.34902" fill="url(#fill3)" fill-rule="evenodd"/></g></svg>