<svg width="1505" height="1413" xmlns="http://www.w3.org/2000/svg" xmlns:xlink="http://www.w3.org/1999/xlink" xml:space="preserve" overflow="hidden"><defs><filter id="fx0" x="-10%" y="-10%" width="120%" height="120%" filterUnits="userSpaceOnUse" primitiveUnits="userSpaceOnUse"><feComponentTransfer color-interpolation-filters="sRGB"><feFuncR type="discrete" tableValues="0 0"/><feFuncG type="discrete" tableValues="0 0"/><feFuncB type="discrete" tableValues="0 0"/><feFuncA type="linear" slope="0.2" intercept="0"/></feComponentTransfer><feGaussianBlur stdDeviation="4.58333 4.58333"/></filter><clipPath id="clip1"><rect x="1170" y="512" width="1505" height="1413"/></clipPath><clipPath id="clip2"><path d="M2426.53 1446C2414.05 1446 2403.24 1450.56 2394.12 1459.69 2385 1468.81 2380.44 1479.61 2380.44 1492.1L2380.44 1630.4 2242.16 1630.4C2229.67 1630.4 2218.87 1634.96 2209.75 1644.09 2200.62 1653.21 2196.06 1664.01 2196.06 1676.5 2196.06 1688.99 2200.62 1699.79 2209.75 1708.91 2218.87 1718.04 2229.67 1722.6 2242.16 1722.6L2380.44 1722.6 2380.44 1860.9C2380.44 1873.39 2385 1884.2 2394.12 1893.31 2403.24 1902.43 2414.05 1907 2426.53 1907 2439.02 1907 2449.82 1902.43 2458.94 1893.31 2468.06 1884.2 2472.62 1873.39 2472.62 1860.9L2472.62 1722.6 2610.91 1722.6C2623.39 1722.6 2634.2 1718.04 2643.32 1708.91 2652.43 1699.79 2657 1688.99 2657 1676.5 2657 1664.01 2652.43 1653.21 2643.32 1644.09 2634.2 1634.96 2623.39 1630.4 2610.91 1630.4L2472.62 1630.4 2472.62 1492.1C2472.62 1479.61 2468.06 1468.81 2458.94 1459.69 2449.82 1450.56 2439.02 1446 2426.53 1446ZM1362.77 524C1338.77 524 1315.84 528.922 1293.99 538.766 1272.15 548.611 1252.94 561.816 1236.38 578.383 1219.81 594.951 1206.61 614.159 1196.76 636.009 1186.92 657.859 1182 680.787 1182 704.798L1182 1541.8C1182 1565.81 1186.92 1588.74 1196.76 1610.59 1206.61 1632.44 1219.81 1651.65 1236.38 1668.22 1252.94 1684.78 1272.15 1697.99 1293.99 1707.83 1315.84 1717.68 1338.77 1722.6 1362.77 1722.6L2057.78 1722.6C2070.27 1722.6 2081.07 1718.04 2090.19 1708.91 2099.31 1699.79 2103.88 1688.99 2103.88 1676.5 2103.88 1664.01 2099.31 1653.21 2090.19 1644.09 2081.07 1634.96 2070.27 1630.4 2057.78 1630.4L1366.38 1630.4C1353.41 1630.4 1341.29 1628 1330 1623.2 1318.72 1618.4 1309 1611.91 1300.84 1603.75 1292.67 1595.58 1286.19 1585.86 1281.39 1574.58 1276.59 1563.29 1274.19 1551.17 1274.19 1538.2L1274.19 708.4C1274.19 695.434 1276.59 683.429 1281.39 672.384 1286.19 661.339 1292.79 651.615 1301.2 643.212 1309.6 634.809 1319.32 628.205 1330.36 623.403 1341.41 618.601 1353.41 616.2 1366.38 616.2L2472.62 616.2C2485.11 616.2 2496.99 618.601 2508.28 623.403 2519.56 628.205 2529.4 634.809 2537.8 643.212 2546.21 651.615 2552.81 661.46 2557.61 672.744 2562.41 684.029 2564.81 695.914 2564.81 708.4L2564.81 1492.1C2564.81 1504.59 2569.37 1515.39 2578.5 1524.51 2587.62 1533.64 2598.42 1538.2 2610.91 1538.2 2623.39 1538.2 2634.2 1533.64 2643.32 1524.51 2652.43 1515.39 2657 1504.59 2657 1492.1L2657 704.798C2657 680.787 2652.07 657.859 2642.24 636.009 2632.4 614.159 2619.19 594.951 2602.62 578.383 2586.06 561.816 2566.85 548.611 2545.01 538.766 2523.16 528.922 2500.23 524 2476.23 524ZM1170 512 2675 512 2675 1925 1170 1925Z" fill-rule="evenodd" clip-rule="evenodd"/></clipPath><linearGradient x1="2692.78" y1="566.641" x2="1146.22" y2="1864.36" gradientUnits="userSpaceOnUse" spreadMethod="reflect" id="fill3"><stop offset="0" stop-color="#AC4FC5"/><stop offset="0.5" stop-color="#8A97E2"/><stop offset="1" stop-color="#ADB9CA"/></linearGradient></defs><g clip-path="url(#clip1)" transform="translate(-1170 -512)"><g clip-path="url(#clip2)"><g filter="url(#fx0)" transform="translate(1169 511)"><g><path d="M1310.47 16.2408C1334.47 16.2408 1357.4 21.1631 1379.25 31.0071 1401.09 40.8515 1420.3 54.0572 1436.86 70.6242 1453.43 87.1916 1466.64 106.4 1476.48 128.25 1486.31 150.1 1491.24 173.028 1491.24 197.039L1491.24 984.341C1491.24 996.827 1486.67 1007.63 1477.56 1016.76 1468.44 1025.88 1457.64 1030.44 1445.15 1030.44 1432.66 1030.44 1421.86 1025.88 1412.74 1016.76 1403.62 1007.63 1399.05 996.827 1399.05 984.341L1399.05 200.641C1399.05 188.155 1396.65 176.27 1391.85 164.985 1387.05 153.701 1380.45 143.856 1372.05 135.453 1363.64 127.049 1353.8 120.446 1342.52 115.644 1331.23 110.842 1319.35 108.441 1306.87 108.441L200.616 108.441C187.652 108.441 175.649 110.842 164.605 115.644 153.562 120.446 143.839 127.049 135.437 135.453 127.034 143.856 120.432 153.58 115.631 164.625 110.829 175.67 108.428 187.675 108.428 200.641L108.428 1030.44C108.428 1043.41 110.829 1055.53 115.631 1066.82 120.432 1078.1 126.914 1087.83 135.077 1095.99 143.239 1104.15 152.962 1110.64 164.245 1115.44 175.528 1120.24 187.652 1122.64 200.616 1122.64L892.022 1122.64C904.506 1122.64 915.31 1127.2 924.432 1136.33 933.554 1145.45 938.116 1156.26 938.116 1168.74 938.116 1181.23 933.554 1192.03 924.432 1201.16 915.31 1210.28 904.506 1214.84 892.022 1214.84L197.015 1214.84C173.007 1214.84 150.081 1209.92 128.235 1200.07 106.388 1190.23 87.1823 1177.02 70.6172 1160.46 54.0524 1143.89 40.8485 1124.68 31.0054 1102.83 21.1624 1080.98 16.2411 1058.05 16.2411 1034.04L16.2411 197.039C16.2411 173.028 21.1624 150.1 31.0054 128.25 40.8485 106.4 54.0524 87.1916 70.6172 70.6242 87.1823 54.0572 106.388 40.8515 128.235 31.0071 150.081 21.1631 173.007 16.2408 197.015 16.2408ZM1491.24 1168.74C1491.24 1181.23 1486.67 1192.03 1477.56 1201.16 1468.44 1210.28 1457.64 1214.84 1445.15 1214.84L1306.87 1214.84 1306.87 1353.14C1306.87 1365.63 1302.3 1376.44 1293.18 1385.56 1284.06 1394.67 1273.26 1399.24 1260.77 1399.24 1248.29 1399.24 1237.48 1394.67 1228.36 1385.56 1219.24 1376.44 1214.68 1365.63 1214.68 1353.14L1214.68 1214.84 1076.4 1214.84C1063.91 1214.84 1053.11 1210.28 1043.99 1201.16 1034.87 1192.03 1030.3 1181.23 1030.3 1168.74 1030.3 1156.26 1034.87 1145.45 1043.99 1136.33 1053.11 1127.2 1063.91 1122.64 1076.4 1122.64L1214.68 1122.64 1214.68 984.341C1214.68 971.855 1219.24 961.05 1228.36 951.927 1237.48 942.803 1248.29 938.241 1260.77 938.241 1273.26 938.241 1284.06 942.803 1293.18 951.927 1302.3 961.05 1306.87 971.855 1306.87 984.341L1306.87 1122.64 1445.15 1122.64C1457.64 1122.64 1468.44 1127.2 1477.56 1136.33 1486.67 1145.45 1491.24 1156.26 1491.24 1168.74Z" stroke="#000000" stroke-width="2" stroke-miterlimit="8" stroke-opacity="0.34902" fill="#FF0000" fill-rule="evenodd"/></g></g></g><path d="M2476.23 524C2500.23 524 2523.16 528.922 2545.01 538.766 2566.85 548.611 2586.06 561.816 2602.62 578.383 2619.19 594.951 2632.4 614.159 2642.24 636.009 2652.07 657.859 2657 680.787 2657 704.798L2657 1492.1C2657 1504.59 2652.43 1515.39 2643.32 1524.51 2634.2 1533.64 2623.39 1538.2 2610.91 1538.2 2598.42 1538.2 2587.62 1533.64 2578.5 1524.51 2569.37 1515.39 2564.81 1504.59 2564.81 1492.1L2564.81 708.4C2564.81 695.914 2562.41 684.029 2557.61 672.744 2552.81 661.46 2546.21 651.615 2537.8 643.212 2529.4 634.809 2519.56 628.205 2508.28 623.403 2496.99 618.601 2485.11 616.2 2472.62 616.2L1366.38 616.2C1353.41 616.2 1341.41 618.601 1330.36 623.403 1319.32 628.205 1309.6 634.809 1301.2 643.212 1292.79 651.615 1286.19 661.339 1281.39 672.384 1276.59 683.429 1274.19 695.434 1274.19 708.4L1274.19 1538.2C1274.19 1551.17 1276.59 1563.29 1281.39 1574.58 1286.19 1585.86 1292.67 1595.58 1300.84 1603.75 1309 1611.91 1318.72 1618.4 1330 1623.2 1341.29 1628 1353.41 1630.4 1366.38 1630.4L2057.78 1630.4C2070.27 1630.4 2081.07 1634.96 2090.19 1644.09 2099.31 1653.21 2103.88 1664.01 2103.88 1676.5 2103.88 1688.99 2099.31 1699.79 2090.19 1708.91 2081.07 1718.04 2070.27 1722.6 2057.78 1722.6L1362.77 1722.6C1338.77 1722.6 1315.84 1717.68 1293.99 1707.83 1272.15 1697.99 1252.94 1684.78 1236.38 1668.22 1219.81 1651.65 1206.61 1632.44 1196.76 1610.59 1186.92 1588.74 1182 1565.81 1182 1541.8L1182 704.798C1182 680.787 1186.92 657.859 1196.76 636.009 1206.61 614.159 1219.81 594.951 1236.38 578.383 1252.94 561.816 1272.15 548.611 1293.99 538.766 1315.84 528.922 1338.77 524 1362.77 524ZM2657 1676.5C2657 1688.99 2652.43 1699.79 2643.32 1708.91 2634.2 1718.04 2623.39 1722.6 2610.91 1722.6L2472.62 1722.6 2472.62 1860.9C2472.62 1873.39 2468.06 1884.2 2458.94 1893.31 2449.82 1902.43 2439.02 1907 2426.53 1907 2414.05 1907 2403.24 1902.43 2394.12 1893.31 2385 1884.2 2380.44 1873.39 2380.44 1860.9L2380.44 1722.6 2242.16 1722.6C2229.67 1722.6 2218.87 1718.04 2209.75 1708.91 2200.62 1699.79 2196.06 1688.99 2196.06 1676.5 2196.06 1664.01 2200.62 1653.21 2209.75 1644.09 2218.87 1634.96 2229.67 1630.4 2242.16 1630.4L2380.44 1630.4 2380.44 1492.1C2380.44 1479.61 2385 1468.81 2394.12 1459.69 2403.24 1450.56 2414.05 1446 2426.53 1446 2439.02 1446 2449.82 1450.56 2458.94 1459.69 2468.06 1468.81 2472.62 1479.61 2472.62 1492.1L2472.62 1630.4 2610.91 1630.4C2623.39 1630.4 2634.2 1634.96 2643.32 1644.09 2652.43 1653.21 2657 1664.01 2657 1676.5Z" stroke="#000000" stroke-width="2.29167" stroke-miterlimit="8" stroke-opacity="0.34902" fill="url(#fill3)" fill-rule="evenodd"/></g></svg>