<svg width="1181" height="175" xmlns="http://www.w3.org/2000/svg" xmlns:xlink="http://www.w3.org/1999/xlink"
    xml:space="preserve" overflow="hidden">
    <defs>
        <clipPath id="clip0">
            <rect x="772" y="472" width="1181" height="175" />
        </clipPath>
    </defs>
    <g clip-path="url(#clip0)" transform="translate(-772 -472)">
        <path d="" transform="matrix(1 0 0 1 822.404 578)" />
        <path
            d="M100.751-11.9961C101.48-10.8073 102.136-9.61173 102.717-8.40942 103.297-7.20711 103.588-5.87646 103.588-4.41748 103.588-2.55322 103.142-0.837565 102.25 0.729492 101.359 2.29655 100.103 3.53939 98.4814 4.45801L78.0557 16.1299C76.5156 17.0215 74.827 17.4673 72.9897 17.4673 72.1252 17.4673 71.2673 17.3525 70.4163 17.1228 69.5652 16.8931 68.7614 16.5487 68.0049 16.0894 64.4385 17.008 60.764 17.4673 56.9814 17.4673 53.1989 17.4673 49.5244 17.008 45.958 16.0894 45.2015 16.5487 44.3977 16.8931 43.5466 17.1228 42.6955 17.3525 41.8377 17.4673 40.9731 17.4673 39.1359 17.4673 37.4338 17.0215 35.8667 16.1299L15.4814 4.45801C13.8603 3.53939 12.604 2.29655 11.7124 0.729492 10.8208-0.837565 10.375-2.55322 10.375-4.41748 10.375-5.87646 10.6654-7.20711 11.2463-8.40942 11.8272-9.61173 12.4824-10.8073 13.2119-11.9961L13.4956-12.4824C12.4689-15.1572 11.6921-17.8861 11.1653-20.6689 10.6384-23.4518 10.375-26.2752 10.375-29.1392 10.375-33.4351 10.9289-37.5688 12.0366-41.5405 13.1444-45.5122 14.7114-49.2205 16.7378-52.6653 18.7642-56.1101 21.1958-59.251 24.0327-62.0879 26.8696-64.9248 30.0105-67.3564 33.4553-69.3828 36.9001-71.4092 40.6084-72.9762 44.5801-74.084 48.5518-75.1917 52.6855-75.7456 56.9814-75.7456 61.2773-75.7456 65.4111-75.1917 69.3828-74.084 73.3545-72.9762 77.0627-71.4092 80.5076-69.3828 83.9524-67.3564 87.0932-64.9248 89.9302-62.0879 92.7671-59.251 95.1987-56.1101 97.2251-52.6653 99.2514-49.2205 100.819-45.5122 101.926-41.5405 103.034-37.5688 103.588-33.4351 103.588-29.1392 103.588-26.2752 103.324-23.4518 102.798-20.6689 102.271-17.8861 101.494-15.1572 100.467-12.4824Z"
            transform="matrix(1 0 0 1 822.404 578)" />
        <path
            d="M97.7519-29.1392C97.7519-25.3836 97.2656-21.7699 96.293-18.2981 95.3203-14.8263 93.9491-11.5773 92.1794-8.55127 90.4097-5.52523 88.2888-2.77612 85.8166-0.303955 83.3445 2.16821 80.5954 4.28914 77.5693 6.05884 74.5433 7.82853 71.2943 9.19971 67.8225 10.1724 64.3507 11.145 60.737 11.6313 56.9814 11.6313 53.2259 11.6313 49.6122 11.145 46.1404 10.1724 42.6685 9.19971 39.4196 7.82853 36.3936 6.05884 33.3675 4.28914 30.6184 2.16821 28.1462-0.303955 25.6741-2.77612 23.5531-5.52523 21.7834-8.55127 20.0138-11.5773 18.6426-14.8263 17.6699-18.2981 16.6973-21.7699 16.2109-25.3836 16.2109-29.1392 16.2109-32.8947 16.6973-36.5084 17.6699-39.9802 18.6426-43.4521 20.0138-46.701 21.7834-49.727 23.5531-52.7531 25.6741-55.5022 28.1462-57.9744 30.6184-60.4465 33.3675-62.5675 36.3936-64.3372 39.4196-66.1068 42.6685-67.478 46.1404-68.4507 49.6122-69.4233 53.2259-69.9097 56.9814-69.9097 60.737-69.9097 64.3507-69.4233 67.8225-68.4507 71.2943-67.478 74.5433-66.1068 77.5693-64.3372 80.5954-62.5675 83.3445-60.4465 85.8166-57.9744 88.2888-55.5022 90.4097-52.7531 92.1794-49.727 93.9491-46.701 95.3203-43.4521 96.293-39.9802 97.2656-36.5084 97.7519-32.8947 97.7519-29.1392Z"
            fill="#FFC83D" transform="matrix(1 0 0 1 822.404 578)" />
        <path
            d="M74.4082-34.9751C75.1917-34.9751 75.8739-34.6846 76.4548-34.1038 77.0357-33.5229 77.3262-32.8407 77.3262-32.0571 77.3262-31.7599 77.2924-31.5033 77.2248-31.2871 77.1573-31.071 77.056-30.8278 76.9209-30.5576 75.9753-28.8284 74.7729-27.2681 73.314-25.8767 71.855-24.4853 70.2339-23.2965 68.4507-22.3103 66.6675-21.3241 64.7965-20.5676 62.8376-20.0408 60.8788-19.5139 58.9268-19.2505 56.9814-19.2505 55.0361-19.2505 53.0773-19.5139 51.105-20.0408 49.1326-20.5676 47.2549-21.3241 45.4717-22.3103 43.6885-23.2965 42.0606-24.4853 40.5881-25.8767 39.1156-27.2681 37.9201-28.8284 37.0015-30.5576 36.8664-30.8278 36.7651-31.071 36.6975-31.2871 36.63-31.5033 36.5962-31.7599 36.5962-32.0571 36.5962-32.8407 36.8866-33.5229 37.4675-34.1038 38.0484-34.6846 38.7306-34.9751 39.5142-34.9751 40.1356-34.9751 40.6151-34.8535 40.9529-34.6103 41.2906-34.3672 41.6351-34.0159 41.9863-33.5566 42.3646-33.0973 42.7158-32.6245 43.04-32.1382 43.3643-31.6518 43.7155-31.179 44.0937-30.7197 44.8503-29.8281 45.7283-29.0311 46.728-28.3286 47.7277-27.6261 48.7949-27.0317 49.9297-26.5454 51.0644-26.0591 52.2262-25.6943 53.415-25.4512 54.6038-25.208 55.7926-25.0864 56.9814-25.0864 58.1432-25.0864 59.3253-25.2148 60.5276-25.4714 61.7299-25.7281 62.8917-26.0929 64.0129-26.5657 65.1342-27.0385 66.1879-27.6261 67.1741-28.3286 68.1602-29.0311 69.0451-29.8281 69.8286-30.7197 70.2069-31.179 70.5581-31.6518 70.8823-32.1382 71.2065-32.6245 71.5578-33.0973 71.936-33.5566 72.2873-34.0159 72.6317-34.3672 72.9695-34.6103 73.3072-34.8535 73.7868-34.9751 74.4082-34.9751ZM72.9897-55.3603C74.3947-55.3603 75.7186-55.0902 76.9614-54.5498 78.2043-54.0094 79.285-53.2799 80.2036-52.3613 81.1222-51.4427 81.8517-50.362 82.3921-49.1191 82.9324-47.8763 83.2026-46.5524 83.2026-45.1475L83.2026-43.6885 80.2847-43.6885C80.2847-44.6881 80.0955-45.6338 79.7173-46.5254 79.339-47.417 78.8189-48.1938 78.157-48.8557 77.495-49.5177 76.7182-50.0378 75.8267-50.416 74.935-50.7943 73.9894-50.9834 72.9897-50.9834 71.963-50.9834 71.0107-50.7943 70.1326-50.416 69.2545-50.0378 68.4912-49.5177 67.8428-48.8557 67.1943-48.1938 66.681-47.417 66.3027-46.5254 65.9245-45.6338 65.7353-44.6881 65.7353-43.6885L62.8174-43.6885 62.8174-45.1475C62.8174-46.5524 63.0808-47.8763 63.6077-49.1191 64.1345-50.362 64.8572-51.4427 65.7759-52.3613 66.6945-53.2799 67.7752-54.0094 69.0181-54.5498 70.2609-55.0902 71.5848-55.3603 72.9897-55.3603ZM48.2275-43.6885C48.2275-44.6881 48.0384-45.6338 47.6602-46.5254 47.2819-47.417 46.7685-48.1938 46.1201-48.8557 45.4717-49.5177 44.7017-50.0378 43.8101-50.416 42.9184-50.7943 41.9728-50.9834 40.9731-50.9834 39.9464-50.9834 38.9941-50.7943 38.116-50.416 37.2379-50.0378 36.4678-49.5177 35.8059-48.8557 35.144-48.1938 34.6239-47.417 34.2456-46.5254 33.8673-45.6338 33.6782-44.6881 33.6782-43.6885L30.7603-43.6885 30.7603-45.1475C30.7603-46.5524 31.0304-47.8763 31.5708-49.1191 32.1112-50.362 32.8407-51.4427 33.7593-52.3613 34.6779-53.2799 35.7586-54.0094 37.0015-54.5498 38.2443-55.0902 39.5682-55.3603 40.9731-55.3603 42.3781-55.3603 43.702-55.0902 44.9448-54.5498 46.1877-54.0094 47.2684-53.2799 48.187-52.3613 49.1056-51.4427 49.8284-50.362 50.3552-49.1191 50.8821-47.8763 51.1455-46.5524 51.1455-45.1475L51.1455-43.6885Z"
            transform="matrix(1 0 0 1 822.404 578)" />
        <path
            d="M88.998-16.3325C89.7816-16.3325 90.5178-16.1366 91.2068-15.7449 91.8957-15.3531 92.4294-14.8195 92.8076-14.144L97.1846-6.56543C97.3737-6.24121 97.5223-5.88997 97.6304-5.51172 97.7384-5.13346 97.7925-4.75521 97.7925-4.37695 97.7925-2.72884 97.0495-1.47249 95.5635-0.60791L75.1782 11.064C74.854 11.2531 74.5095 11.4017 74.1448 11.5098 73.78 11.6178 73.4085 11.6719 73.0303 11.6719 72.4088 11.6719 71.8347 11.557 71.3079 11.3274 70.781 11.0977 70.3217 10.7803 69.9299 10.375 69.5382 9.96972 69.2274 9.50366 68.9978 8.97681 68.7681 8.44995 68.6533 7.87581 68.6533 7.25439L68.6533-13.1309C68.6533-13.7253 68.7681-14.2926 68.9978-14.833 69.2274-15.3734 69.5382-15.8327 69.9299-16.2109 70.3217-16.5892 70.781-16.8931 71.3079-17.1228 71.8347-17.3525 72.3953-17.4673 72.9897-17.4673 73.5841-17.4673 74.1448-17.3525 74.6716-17.1228 75.1985-16.8931 75.6645-16.5892 76.0698-16.2109 76.4751-15.8327 76.7925-15.3734 77.0222-14.833 77.2519-14.2926 77.3667-13.7253 77.3667-13.1309L77.3667-10.3345 86.8501-15.7246C87.1743-15.9137 87.5188-16.0623 87.8835-16.1704 88.2483-16.2785 88.6198-16.3325 88.998-16.3325ZM40.9731-17.4673C41.5675-17.4673 42.1282-17.3525 42.655-17.1228 43.1819-16.8931 43.6479-16.5824 44.0532-16.1907 44.4585-15.7989 44.776-15.3396 45.0056-14.8127 45.2353-14.2859 45.3501-13.7253 45.3501-13.1309L45.3501 7.25439C45.3501 7.87581 45.2353 8.44995 45.0056 8.97681 44.776 9.50366 44.4585 9.96972 44.0532 10.375 43.6479 10.7803 43.1751 11.0977 42.6348 11.3274 42.0944 11.557 41.527 11.6719 40.9326 11.6719 40.5544 11.6719 40.1829 11.6178 39.8181 11.5098 39.4534 11.4017 39.1089 11.2531 38.7847 11.064L18.3994-0.60791C16.9134-1.47249 16.1704-2.72884 16.1704-4.37695 16.1704-4.75521 16.2244-5.13346 16.3325-5.51172 16.4406-5.88997 16.5892-6.24121 16.7783-6.56543L21.1553-14.144C21.5335-14.8195 22.0671-15.3531 22.7561-15.7449 23.4451-16.1366 24.1813-16.3325 24.9648-16.3325 25.3431-16.3325 25.7146-16.2785 26.0793-16.1704 26.4441-16.0623 26.7886-15.9137 27.1128-15.7246L36.5962-10.3345 36.5962-13.1309C36.5962-13.7253 36.711-14.2926 36.9407-14.833 37.1703-15.3734 37.4878-15.8327 37.8931-16.2109 38.2983-16.5892 38.7644-16.8931 39.2913-17.1228 39.8181-17.3525 40.3787-17.4673 40.9731-17.4673Z"
            fill="#D48C00" transform="matrix(1 0 0 1 822.404 578)" /><text fill="#000000" fill-opacity="0"
            font-family="Arial,Arial_MSFontService,sans-serif" font-size="29.1392" x="16.1704"
            y="8.02948">🤗</text><text fill="#8A97E2"
            font-family="Century Gothic,Century Gothic_MSFontService,sans-serif" font-weight="400" font-size="83"
            transform="matrix(1 0 0 1 980.529 578)">Hello Welcome to LAS. </text>
    </g>
</svg>