<svg width="1059" height="400" xmlns="http://www.w3.org/2000/svg" xmlns:xlink="http://www.w3.org/1999/xlink" xml:space="preserve" overflow="hidden"><g transform="translate(-828 -653)"><path d="M830.5 721.335C830.5 684.975 859.975 655.5 896.335 655.5L1818.67 655.5C1855.02 655.5 1884.5 684.975 1884.5 721.335L1884.5 984.665C1884.5 1021.02 1855.02 1050.5 1818.67 1050.5L896.335 1050.5C859.975 1050.5 830.5 1021.02 830.5 984.665Z" stroke="#E7E6E6" stroke-width="4.58333" stroke-miterlimit="8" fill-rule="evenodd"/><text fill="#FFFFFF" font-family="Cascadia Code,Cascadia Code_MSFontService,sans-serif" font-weight="400" font-size="55" transform="matrix(1 0 0 1 881.825 744)"># Code</text><text fill="#8A97E2" font-family="Cascadia Code,Cascadia Code_MSFontService,sans-serif" font-weight="400" font-size="55" transform="matrix(1 0 0 1 881.825 876)">import</text><text fill="#AC4FC5" font-family="Cascadia Code,Cascadia Code_MSFontService,sans-serif" font-weight="400" font-size="55" transform="matrix(1 0 0 1 1106.41 876)">numpy</text><text fill="#8E9BDF" font-family="Cascadia Code,Cascadia Code_MSFontService,sans-serif" font-weight="400" font-size="55" transform="matrix(1 0 0 1 1298.91 876)">as</text><text fill="#A759C9" font-family="Cascadia Code,Cascadia Code_MSFontService,sans-serif" font-weight="400" font-size="55" transform="matrix(1 0 0 1 1395.16 876)">np</text></g></svg>