<svg width="1555" height="676" xmlns="http://www.w3.org/2000/svg" xmlns:xlink="http://www.w3.org/1999/xlink" xml:space="preserve" overflow="hidden"><defs><clipPath id="clip0"><rect x="611" y="1008" width="1555" height="676"/></clipPath></defs><g clip-path="url(#clip0)" transform="translate(-611 -1008)"><path d="M711.88 1008 619 1101 711.88 1101ZM2065.09 1008 2158 1101 2065.09 1101Z" fill="#A759C9" fill-rule="evenodd"/><path d="M2131.61 1684 645.386 1684C626.395 1684 611 1668.61 611 1649.62L611 1122.38C611 1103.39 626.395 1088 645.386 1088L2131.61 1088C2150.61 1088 2166 1103.39 2166 1122.38L2166 1649.58C2166.02 1668.57 2150.64 1683.98 2131.65 1684 2131.64 1684 2131.62 1684 2131.61 1684Z" fill="#9188DC" fill-rule="evenodd"/><path d="M1297.52 1504.16C1297.57 1511.4 1294.19 1518.23 1288.4 1522.57 1277.98 1530.95 1263.59 1532.37 1251.73 1526.18 1246.72 1523.49 1242.46 1519.59 1239.35 1514.83L1194.63 1449.45C1191.92 1445.4 1188.4 1441.94 1184.31 1439.3 1180.55 1437.01 1176.22 1435.82 1171.83 1435.86L1149.43 1435.86 1149.43 1497.79C1149.88 1506.23 1146.9 1514.48 1141.18 1520.68 1135.12 1526.54 1126.89 1529.61 1118.47 1529.14 1102.43 1530.39 1088.42 1518.39 1087.17 1502.34 1087.05 1500.83 1087.05 1499.31 1087.17 1497.79L1087.17 1313.42C1085.52 1298.92 1095.93 1285.82 1110.43 1284.17 1112.42 1283.95 1114.42 1283.95 1116.41 1284.17L1202.78 1284.17C1232.16 1284.17 1254.24 1290.54 1269.03 1303.27 1283.82 1316 1291.23 1334.42 1291.25 1358.53 1291.76 1375.38 1286.4 1391.87 1276.09 1405.2 1265.24 1418.39 1250.17 1427.45 1233.43 1430.83 1240.52 1431.81 1247.28 1434.4 1253.21 1438.4 1259.73 1443.26 1265.37 1449.2 1269.89 1455.95L1291.25 1486.61C1295.04 1491.71 1297.22 1497.82 1297.52 1504.16ZM1223.01 1381.93C1229.06 1377.6 1232.12 1370.48 1232.12 1360.6 1232.12 1350.72 1229.06 1343.22 1223.01 1338.75 1216.96 1334.28 1206.88 1332.04 1192.88 1332.04L1148.81 1332.04 1148.81 1388.47 1192.88 1388.47C1206.89 1388.47 1216.93 1386.29 1223.01 1381.93ZM1387.16 1520.16C1381.17 1514.23 1377.99 1506.04 1378.38 1497.62L1378.38 1335.48 1329.85 1335.48C1319.77 1335.48 1312.24 1333.35 1307.32 1329.11 1302.4 1324.88 1299.92 1318.38 1299.92 1309.64 1299.92 1300.9 1302.37 1294.5 1307.32 1290.37 1312.27 1286.24 1319.77 1284.17 1329.85 1284.17L1490.93 1284.17C1501 1284.17 1508.51 1286.24 1513.47 1290.37 1518.42 1294.5 1520.88 1300.92 1520.86 1309.64 1520.86 1318.38 1518.38 1324.85 1513.47 1329.11 1508.55 1333.38 1501.01 1335.48 1490.93 1335.48L1442.4 1335.48 1442.4 1497.79C1442.79 1506.21 1439.61 1514.4 1433.63 1520.33 1420.2 1531.63 1400.59 1531.63 1387.16 1520.33ZM1549.76 1520.33C1543.88 1514.27 1540.77 1506.06 1541.16 1497.62L1541.16 1313.42C1539.5 1298.92 1549.91 1285.82 1564.41 1284.17 1566.41 1283.94 1568.43 1283.94 1570.43 1284.17L1686.04 1284.17C1696.38 1284.17 1703.96 1286.18 1708.78 1290.2 1713.59 1294.21 1716 1300.58 1716 1309.29 1716 1317.78 1713.53 1323.99 1708.6 1327.91 1703.65 1331.8 1696.15 1333.76 1686.04 1333.76L1603.48 1333.76 1603.48 1378.49 1679.16 1378.49C1689.27 1378.49 1696.77 1380.56 1701.72 1384.69 1706.68 1388.82 1709.12 1395.01 1709.12 1403.65 1709.12 1412.28 1706.64 1418.34 1701.72 1422.23 1696.81 1426.12 1689.27 1428.08 1679.16 1428.08L1603.48 1428.08 1603.48 1497.79C1603.84 1506.21 1600.74 1514.41 1594.92 1520.51 1588.9 1526.31 1580.74 1529.37 1572.39 1528.97 1563.98 1529.31 1555.8 1526.19 1549.76 1520.33Z" fill="#FFFFFF" fill-rule="evenodd"/></g></svg>