<svg width="1380" height="1388" xmlns="http://www.w3.org/2000/svg" xmlns:xlink="http://www.w3.org/1999/xlink" xml:space="preserve" overflow="hidden"><defs><filter id="fx0" x="-10%" y="-10%" width="120%" height="120%" filterUnits="userSpaceOnUse" primitiveUnits="userSpaceOnUse"><feComponentTransfer color-interpolation-filters="sRGB"><feFuncR type="discrete" tableValues="0 0"/><feFuncG type="discrete" tableValues="0 0"/><feFuncB type="discrete" tableValues="0 0"/><feFuncA type="linear" slope="0.101961" intercept="0"/></feComponentTransfer><feGaussianBlur stdDeviation="3.05556 3.05556"/></filter><clipPath id="clip1"><rect x="692" y="373" width="1380" height="1388"/></clipPath><clipPath id="clip2"><path d="M767.385 385.5C732.655 385.5 704.5 413.655 704.5 448.385L704.5 1685.61C704.5 1720.35 732.655 1748.5 767.385 1748.5L1996.61 1748.5C2031.35 1748.5 2059.5 1720.35 2059.5 1685.61L2059.5 448.385C2059.5 413.655 2031.35 385.5 1996.61 385.5ZM692 373 2072 373 2072 1761 692 1761Z" fill-rule="evenodd" clip-rule="evenodd"/></clipPath></defs><g clip-path="url(#clip1)" transform="translate(-692 -373)"><g clip-path="url(#clip2)"><g filter="url(#fx0)" transform="translate(691 372)"><g><path d="M13.4998 76.3851C13.4998 41.6545 41.6545 13.4998 76.3851 13.4998L1305.61 13.4998C1340.35 13.4998 1368.5 41.6545 1368.5 76.3851L1368.5 1313.61C1368.5 1348.35 1340.35 1376.5 1305.61 1376.5L76.3851 1376.5C41.6545 1376.5 13.4998 1348.35 13.4998 1313.61Z" stroke="#F2F2F2" stroke-width="5" stroke-miterlimit="8" fill="#FFFFFF" fill-rule="evenodd"/></g></g></g><path d="M704.5 448.385C704.5 413.655 732.655 385.5 767.385 385.5L1996.61 385.5C2031.35 385.5 2059.5 413.655 2059.5 448.385L2059.5 1685.61C2059.5 1720.35 2031.35 1748.5 1996.61 1748.5L767.385 1748.5C732.655 1748.5 704.5 1720.35 704.5 1685.61Z" stroke="#F2F2F2" stroke-width="4.58333" stroke-miterlimit="8" fill="#FFFFFF" fill-rule="evenodd"/></g></svg>