<svg width="1609" height="953" xmlns="http://www.w3.org/2000/svg" xmlns:xlink="http://www.w3.org/1999/xlink" xml:space="preserve" overflow="hidden"><defs><filter id="fx0" x="-10%" y="-10%" width="120%" height="120%" filterUnits="userSpaceOnUse" primitiveUnits="userSpaceOnUse"><feComponentTransfer color-interpolation-filters="sRGB"><feFuncR type="discrete" tableValues="0 0"/><feFuncG type="discrete" tableValues="0 0"/><feFuncB type="discrete" tableValues="0 0"/><feFuncA type="linear" slope="0.101961" intercept="0"/></feComponentTransfer><feGaussianBlur stdDeviation="3.05556 3.05556"/></filter><clipPath id="clip1"><rect x="481" y="418" width="1609" height="953"/></clipPath><clipPath id="clip2"><path d="M522.965 430.5C506.692 430.5 493.5 443.692 493.5 459.964L493.5 1329.04C493.5 1345.31 506.692 1358.5 522.965 1358.5L2048.04 1358.5C2064.31 1358.5 2077.5 1345.31 2077.5 1329.04L2077.5 459.964C2077.5 443.692 2064.31 430.5 2048.04 430.5ZM481 418 2090 418 2090 1371 481 1371Z" fill-rule="evenodd" clip-rule="evenodd"/></clipPath><clipPath id="clip3"><rect x="1" y="-2" width="1613" height="959"/></clipPath></defs><g clip-path="url(#clip1)" transform="translate(-481 -418)"><g clip-path="url(#clip2)"><g clip-path="url(#clip3)" filter="url(#fx0)" transform="translate(480 417)"><g><path d="M13.5001 42.9643C13.5001 26.6915 26.6918 13.4999 42.9645 13.4999L1568.04 13.4999C1584.31 13.4999 1597.5 26.6915 1597.5 42.9643L1597.5 912.036C1597.5 928.308 1584.31 941.5 1568.04 941.5L42.9645 941.5C26.6918 941.5 13.5001 928.308 13.5001 912.036Z" stroke="#F2F2F2" stroke-width="5" stroke-miterlimit="8" fill="#FFFFFF" fill-rule="evenodd"/></g></g></g><path d="M493.5 459.964C493.5 443.692 506.692 430.5 522.965 430.5L2048.04 430.5C2064.31 430.5 2077.5 443.692 2077.5 459.964L2077.5 1329.04C2077.5 1345.31 2064.31 1358.5 2048.04 1358.5L522.965 1358.5C506.692 1358.5 493.5 1345.31 493.5 1329.04Z" stroke="#F2F2F2" stroke-width="4.58333" stroke-miterlimit="8" fill="#FFFFFF" fill-rule="evenodd"/></g></svg>