<svg width="1276" height="685" xmlns="http://www.w3.org/2000/svg" xmlns:xlink="http://www.w3.org/1999/xlink" xml:space="preserve" overflow="hidden"><defs><filter id="fx0" x="-10%" y="-10%" width="120%" height="120%" filterUnits="userSpaceOnUse" primitiveUnits="userSpaceOnUse"><feComponentTransfer color-interpolation-filters="sRGB"><feFuncR type="discrete" tableValues="0 0"/><feFuncG type="discrete" tableValues="0 0"/><feFuncB type="discrete" tableValues="0 0"/><feFuncA type="linear" slope="0.2" intercept="0"/></feComponentTransfer><feGaussianBlur stdDeviation="4.58333 4.58333"/></filter><clipPath id="clip1"><rect x="917" y="594" width="1276" height="685"/></clipPath><clipPath id="clip2"><path d="M929 606 929 1260.24 1113.94 1260.24 1234.88 1260.24 1243.32 1260.24 1296.32 1125.99 1295.89 1125.99 1342.91 1004.06 1342.3 1004.06 1389.79 882.499 1429.89 778.518 1459.6 855.555 1517.27 1004.06 1516.87 1004.06 1563.89 1125.99 1563.57 1125.99 1614.55 1260.24 1618.64 1260.24 1743.93 1260.24 1929.5 1260.24 1935.52 1261 2026.47 1261 2056.4 1253.57C2080.36 1245.17 2101.52 1232.58 2119.89 1215.8 2156.63 1182.22 2175 1139.68 2175 1088.18 2175 1061.72 2169.78 1037.33 2159.34 1014.99 2148.9 992.655 2131.18 969.253 2106.18 944.782 2096.18 934.824 2067.65 910.782 2020.59 872.655 1970.3 831.399 1940.16 804.511 1930.15 791.992 1922.8 782.602 1919.12 772.643 1919.12 762.116 1919.12 751.589 1924.27 742.128 1934.57 733.735 1944.86 725.341 1958.09 721.145 1974.27 721.145 2007.51 721.145 2040.16 742.768 2072.22 786.017L2163.55 707.914C2129.45 669.503 2097.78 643.041 2068.53 628.531 2039.28 614.02 2008.49 606.764 1976.15 606.764 1925.88 606.764 1883.63 622.342 1849.38 653.498 1815.13 684.654 1798.01 721.998 1798.01 765.531 1798.01 795.691 1808.31 825.921 1828.89 856.224 1849.48 886.526 1895.07 929.561 1965.66 985.328 2002.71 1014.63 2026.68 1036.4 2037.57 1050.63 2048.45 1064.85 2053.89 1079.08 2053.89 1093.31 2053.89 1108.96 2046.68 1122.75 2032.27 1134.7 2025.07 1140.68 2017.02 1145.16 2008.12 1148.15L1997.54 1149.77 1962.66 1149.77 1959.86 1149.28 1778.89 1149.28 1779.18 1149.77 1701.46 1149.77 1492.39 606 1366.14 606 1159.72 1141.49 1053.49 1141.49 1053.49 606ZM917 594 2193 594 2193 1279 917 1279Z" fill-rule="evenodd" clip-rule="evenodd"/></clipPath><linearGradient x1="2078.85" y1="491.417" x2="1025.15" y2="1375.58" gradientUnits="userSpaceOnUse" spreadMethod="reflect" id="fill3"><stop offset="0" stop-color="#AC4FC5"/><stop offset="0.5" stop-color="#8A97E2"/><stop offset="1" stop-color="#ADB9CA"/></linearGradient></defs><g clip-path="url(#clip1)" transform="translate(-917 -594)"><g clip-path="url(#clip2)"><g filter="url(#fx0)" transform="translate(916 593)"><g><path d="M16.2411 16.241 140.727 16.241 140.727 551.727 246.957 551.727 453.381 16.241 579.632 16.241 788.696 560.013 866.423 560.013 866.135 559.52 1047.1 559.52 1049.91 560.013 1084.78 560.013 1095.36 558.39C1104.26 555.402 1112.31 550.921 1119.51 544.946 1133.92 532.996 1141.13 519.196 1141.13 503.547 1141.13 489.321 1135.69 475.094 1124.81 460.868 1113.92 446.642 1089.95 424.875 1052.9 395.569 982.307 339.802 936.72 296.767 916.133 266.465 895.546 236.162 885.253 205.932 885.253 175.771 885.253 132.239 902.376 94.8948 936.622 63.739 970.868 32.5833 1013.12 17.0053 1063.39 17.0053 1095.73 17.0053 1126.52 24.2608 1155.77 38.7717 1185.02 53.2823 1216.69 79.7436 1250.79 118.155L1159.46 196.258C1127.4 153.009 1094.75 131.385 1061.51 131.385 1045.34 131.385 1032.1 135.582 1021.81 143.976 1011.51 152.369 1006.36 161.83 1006.36 172.357 1006.36 182.884 1010.04 192.843 1017.4 202.233 1027.4 214.752 1057.54 241.64 1107.83 282.896 1154.89 321.023 1183.42 345.065 1193.42 355.023 1218.42 379.493 1236.14 402.896 1246.58 425.231 1257.02 447.566 1262.24 471.964 1262.24 498.426 1262.24 549.925 1243.87 592.462 1207.13 626.036 1188.76 642.823 1167.6 655.413 1143.65 663.807L1113.71 671.241 1022.76 671.241 1016.74 670.477 831.166 670.477 705.876 670.477 701.79 670.477 650.816 536.229 651.13 536.229 604.107 414.297 604.508 414.297 546.838 265.796 517.129 188.759 477.029 292.74 429.54 414.297 430.15 414.297 383.127 536.229 383.558 536.229 330.556 670.477 322.121 670.477 201.18 670.477 16.2411 670.477Z" stroke="#000000" stroke-width="2" stroke-miterlimit="8" stroke-opacity="0.34902" fill="#FF0000" fill-rule="evenodd"/></g></g></g><path d="M929 606 1053.49 606 1053.49 1141.49 1159.72 1141.49 1366.14 606 1492.39 606 1701.46 1149.77 1779.18 1149.77 1778.89 1149.28 1959.86 1149.28 1962.66 1149.77 1997.54 1149.77 2008.12 1148.15C2017.02 1145.16 2025.07 1140.68 2032.27 1134.7 2046.68 1122.75 2053.89 1108.96 2053.89 1093.31 2053.89 1079.08 2048.45 1064.85 2037.57 1050.63 2026.68 1036.4 2002.71 1014.63 1965.66 985.328 1895.07 929.561 1849.48 886.526 1828.89 856.224 1808.31 825.922 1798.01 795.691 1798.01 765.531 1798.01 721.998 1815.13 684.654 1849.38 653.498 1883.63 622.342 1925.88 606.764 1976.15 606.764 2008.49 606.764 2039.28 614.02 2068.53 628.531 2097.78 643.041 2129.45 669.503 2163.55 707.914L2072.22 786.017C2040.16 742.768 2007.51 721.145 1974.27 721.145 1958.09 721.145 1944.86 725.341 1934.57 733.735 1924.27 742.128 1919.12 751.589 1919.12 762.116 1919.12 772.643 1922.8 782.602 1930.15 791.992 1940.16 804.511 1970.3 831.399 2020.59 872.655 2067.65 910.782 2096.18 934.824 2106.18 944.782 2131.18 969.253 2148.9 992.655 2159.34 1014.99 2169.78 1037.33 2175 1061.72 2175 1088.18 2175 1139.68 2156.63 1182.22 2119.89 1215.8 2101.52 1232.58 2080.36 1245.17 2056.4 1253.57L2026.47 1261 1935.52 1261 1929.5 1260.24 1743.93 1260.24 1618.64 1260.24 1614.55 1260.24 1563.57 1125.99 1563.89 1125.99 1516.87 1004.06 1517.27 1004.06 1459.6 855.555 1429.89 778.518 1389.79 882.499 1342.3 1004.06 1342.91 1004.06 1295.89 1125.99 1296.32 1125.99 1243.32 1260.24 1234.88 1260.24 1113.94 1260.24 929 1260.24Z" stroke="#000000" stroke-width="2.29167" stroke-miterlimit="8" stroke-opacity="0.34902" fill="url(#fill3)" fill-rule="evenodd"/></g></svg>