<svg width="1670" height="1782" xmlns="http://www.w3.org/2000/svg" xmlns:xlink="http://www.w3.org/1999/xlink" xml:space="preserve" overflow="hidden"><defs><filter id="fx0" x="-10%" y="-10%" width="120%" height="120%" filterUnits="userSpaceOnUse" primitiveUnits="userSpaceOnUse"><feComponentTransfer color-interpolation-filters="sRGB"><feFuncR type="discrete" tableValues="0 0"/><feFuncG type="discrete" tableValues="0 0"/><feFuncB type="discrete" tableValues="0 0"/><feFuncA type="linear" slope="0.2" intercept="0"/></feComponentTransfer><feGaussianBlur stdDeviation="4.58333 4.58333"/></filter><clipPath id="clip1"><rect x="825" y="258" width="1670" height="1782"/></clipPath><clipPath id="clip2"><path d="M1641.03 270.14C1418.19 274.412 1197.88 369.039 1039.6 550.038 741.667 890.74 776.335 1408.46 1117.04 1706.4L1249.43 1555C1115.9 1438.23 1038.95 1269.74 1038.13 1092.36 1036.55 750.84 1312.12 472.706 1653.64 471.128 1995.16 469.549 2273.29 745.124 2274.87 1086.64 2276.45 1428.16 2000.87 1706.29 1659.36 1707.87L1660.29 1908.99C1895.36 1907.9 2118.65 1805.92 2273.4 1628.96 2571.33 1288.26 2536.66 770.541 2195.96 472.604 2036.26 332.946 1837.66 266.37 1641.03 270.14ZM825 258 2495 258 2495 2040 825 2040Z" fill-rule="evenodd" clip-rule="evenodd"/></clipPath><linearGradient x1="2398.63" y1="1973.92" x2="914.371" y2="205.056" gradientUnits="userSpaceOnUse" spreadMethod="reflect" id="fill3"><stop offset="0" stop-color="#D69ACC"/><stop offset="0.42" stop-color="#9F98F1"/><stop offset="1" stop-color="#8A97E2"/></linearGradient></defs><g clip-path="url(#clip1)" transform="translate(-825 -258)"><g clip-path="url(#clip2)"><g filter="url(#fx0)" transform="translate(824 257)"><g><path d="M296.278 1452.64C-44.4242 1154.7-79.0924 636.981 218.844 296.278 516.781-44.4238 1034.5-79.092 1375.2 218.845 1715.9 516.782 1750.57 1034.5 1452.64 1375.2 1297.89 1552.16 1074.6 1654.15 839.528 1655.23L838.598 1454.11C1180.12 1452.53 1455.69 1174.4 1454.11 832.882 1452.53 491.365 1174.4 215.79 832.882 217.368 491.365 218.947 215.79 497.081 217.369 838.598 218.188 1015.98 295.143 1184.47 428.673 1301.24Z" stroke="#000000" stroke-width="2" stroke-miterlimit="8" stroke-opacity="0.34902" fill="#FF0000" fill-rule="evenodd"/></g></g></g><path d="M1117.04 1706.4C776.335 1408.46 741.667 890.74 1039.6 550.038 1337.54 209.335 1855.26 174.667 2195.96 472.604 2536.66 770.541 2571.33 1288.26 2273.4 1628.96 2118.65 1805.92 1895.36 1907.9 1660.29 1908.99L1659.36 1707.87C2000.87 1706.29 2276.45 1428.16 2274.87 1086.64 2273.29 745.124 1995.16 469.549 1653.64 471.128 1312.12 472.706 1036.55 750.84 1038.13 1092.36 1038.95 1269.74 1115.9 1438.23 1249.43 1555Z" stroke="#000000" stroke-width="2.29167" stroke-miterlimit="8" stroke-opacity="0.34902" fill="url(#fill3)" fill-rule="evenodd"/><path d="M1704.98 1905.95C1698.3 1923.65 1668.5 1996.3 1594.5 2026.23 1591.97 2027.21 1589.58 2028.25 1587.11 2029.09 1551.25 2041.65 1517.94 2040.02 1501.17 2038.91 1464.86 2036.76 1435.38 2026.82 1414.92 2017.63L1414.18 2014.56C1426.86 2017.26 1447 2018.4 1466.63 2007.55 1483.62 1998.27 1492.39 1984.24 1496.03 1977.46L1710.51 1491.34C1728.02 1451.65 1774.86 1433.94 1815.09 1451.68L1817.79 1452.88C1858.02 1470.62 1876.51 1517.17 1859 1556.86Z" fill="#9F6AD0" fill-rule="evenodd"/><path d="M1546.12 1863.93 1496.03 1977.46C1492.39 1984.24 1483.62 1998.27 1466.63 2007.55 1447 2018.4 1426.86 2017.26 1414.18 2014.56L1357.44 1785.68 1454.31 1714.89C1461.65 1709.58 1469.67 1706.02 1477.97 1704.03 1486.26 1702.05 1494.77 1701.77 1503.09 1703.02 1504.15 1703.17 1505.22 1703.32 1506.3 1703.79Z" fill="#8358C8" fill-rule="evenodd"/><path d="M1501.94 1685.9 1506.3 1703.79C1505.22 1703.32 1504.15 1703.17 1503.09 1703.02 1494.77 1701.77 1486.26 1702.05 1477.97 1704.03 1469.67 1706.02 1461.65 1709.58 1454.31 1714.88L1357.44 1785.68 1184.25 1912.47C1173.89 1904.52 1161.02 1890.93 1156.14 1870.56 1151.53 1851.75 1155.98 1835.82 1158.54 1828.56L1224.3 1679.52 1276.94 1640.98C1285.49 1634.76 1294.62 1629.43 1303.79 1625.09 1316.9 1618.78 1330.76 1614.41 1344.64 1611.82 1362.98 1608.63 1381.66 1608.32 1399.77 1611.15 1419.21 1614.24 1438.15 1620.66 1455.4 1630.54L1456.62 1631.07C1464.84 1635.83 1472.57 1641.34 1480 1647.52 1480.14 1647.58 1480.21 1647.77 1480.35 1647.83 1490.55 1657.98 1498.24 1670.88 1501.94 1685.9Z" fill="#D69ACC" fill-rule="evenodd"/><path d="M1184.25 1912.47 1181.38 1914.6C1161.06 1905.47 1134.84 1890.68 1109.68 1866.19 1096.8 1853.73 1070.64 1827.84 1056.14 1788.7 1028.35 1713.87 1061.93 1642.88 1070.5 1626.02L1224.52 1276.92C1242.03 1237.23 1288.88 1219.52 1329.11 1237.27L1331.81 1238.46C1372.03 1256.21 1390.53 1302.75 1373.02 1342.44L1158.54 1828.56C1155.98 1835.82 1151.53 1851.75 1156.14 1870.56 1161.02 1890.93 1173.89 1904.52 1184.25 1912.47Z" fill="#8A97E2" fill-rule="evenodd"/></g></svg>