<svg width="1358" height="886" xmlns="http://www.w3.org/2000/svg" xmlns:xlink="http://www.w3.org/1999/xlink" xml:space="preserve" overflow="hidden"><defs><clipPath id="clip0"><rect x="402" y="468" width="1358" height="886"/></clipPath></defs><g clip-path="url(#clip0)" transform="translate(-402 -468)"><path d="M1760 554.003 1760 1268C1760 1315.5 1721.49 1354 1673.98 1354L633.107 1354C585.599 1354 547.09 1315.5 547.09 1268L547.09 934.575 428.731 851.713C393.285 826.937 393.051 774.553 428.264 749.427L547.087 664.706 547.087 554.003C547.087 506.503 585.596 468 633.104 468L1673.98 468C1721.49 468 1760 506.506 1760 554.003Z" fill="#8A97E2" fill-rule="evenodd"/><path d="M1760 945 1760 1268C1760 1315.5 1721.5 1354 1673.99 1354L703 1354 703 1113.62C703 1020.65 778.651 945 871.639 945L1760 945Z" fill="#8E9BDF" fill-rule="evenodd"/></g></svg>