<svg width="1760" height="1935" xmlns="http://www.w3.org/2000/svg" xmlns:xlink="http://www.w3.org/1999/xlink" xml:space="preserve" overflow="hidden"><defs><filter id="fx0" x="-10%" y="-10%" width="120%" height="120%" filterUnits="userSpaceOnUse" primitiveUnits="userSpaceOnUse"><feComponentTransfer color-interpolation-filters="sRGB"><feFuncR type="discrete" tableValues="0 0"/><feFuncG type="discrete" tableValues="0 0"/><feFuncB type="discrete" tableValues="0 0"/><feFuncA type="linear" slope="0.101961" intercept="0"/></feComponentTransfer><feGaussianBlur stdDeviation="3.05556 3.05556"/></filter><clipPath id="clip1"><rect x="402" y="185" width="1760" height="1935"/></clipPath><clipPath id="clip2"><path d="M540.823 197.5C513.031 197.5 490.5 220.031 490.5 247.824L490.5 2057.18C490.5 2084.97 513.031 2107.5 540.823 2107.5L2025.18 2107.5C2052.97 2107.5 2075.5 2084.97 2075.5 2057.18L2075.5 247.824C2075.5 220.031 2052.97 197.5 2025.18 197.5ZM402 185 2162 185 2162 2120 402 2120Z" fill-rule="evenodd" clip-rule="evenodd"/></clipPath><clipPath id="clip3"><rect x="1" y="1" width="1613" height="1936"/></clipPath></defs><g clip-path="url(#clip1)" transform="translate(-402 -185)"><g clip-path="url(#clip2)"><g clip-path="url(#clip3)" filter="url(#fx0)" transform="translate(477 184)"><g><path d="M13.5 63.8236C13.5 36.0307 36.0306 13.5002 63.8235 13.5002L1548.18 13.5002C1575.97 13.5002 1598.5 36.0307 1598.5 63.8236L1598.5 1873.18C1598.5 1900.97 1575.97 1923.5 1548.18 1923.5L63.8235 1923.5C36.0306 1923.5 13.5 1900.97 13.5 1873.18Z" stroke="#F2F2F2" stroke-width="5" stroke-miterlimit="8" fill="#FFFFFF" fill-rule="evenodd"/></g></g></g><path d="M490.5 247.824C490.5 220.031 513.031 197.5 540.823 197.5L2025.18 197.5C2052.97 197.5 2075.5 220.031 2075.5 247.824L2075.5 2057.18C2075.5 2084.97 2052.97 2107.5 2025.18 2107.5L540.823 2107.5C513.031 2107.5 490.5 2084.97 490.5 2057.18Z" stroke="#F2F2F2" stroke-width="4.58333" stroke-miterlimit="8" fill="#FFFFFF" fill-rule="evenodd"/><path d="M1760 554.003 1760 1268C1760 1315.5 1721.49 1354 1673.98 1354L633.107 1354C585.599 1354 547.09 1315.5 547.09 1268L547.09 934.575 428.731 851.713C393.285 826.937 393.051 774.553 428.264 749.427L547.087 664.706 547.087 554.003C547.087 506.503 585.596 468 633.104 468L1673.98 468C1721.49 468 1760 506.506 1760 554.003Z" fill="#8A97E2" fill-rule="evenodd"/><path d="M1760 945 1760 1268C1760 1315.5 1721.5 1354 1673.99 1354L703 1354 703 1113.62C703 1020.65 778.651 945 871.639 945L1760 945Z" fill="#8E9BDF" fill-rule="evenodd"/><path d="M890.017 1039 1930.92 1039C1978.42 1039 2016.93 1077.51 2016.93 1125L2016.93 1235.7 2135.74 1320.43C2170.94 1345.54 2170.71 1397.92 2135.29 1422.72L2016.93 1505.57 2016.93 1839C2016.93 1886.49 1978.42 1925 1930.92 1925L890.017 1925C842.513 1925 804 1886.49 804 1839L804 1125C803.996 1077.51 842.509 1039 890.017 1039Z" fill="#C381D5" fill-rule="evenodd"/><path d="M804 1838.75 804 1760C804 1807.64 842.511 1846.25 890.021 1846.25L1930.98 1846.25C1978.49 1846.25 2017 1807.64 2017 1760L2017 1838.75C2017 1886.39 1978.49 1925 1930.98 1925L890.017 1925C842.511 1925 804 1886.38 804 1838.75Z" fill="#A759C9" fill-rule="evenodd"/><path d="M721.567 690.816C706.897 690.819 695.002 678.922 695 664.25 695 664.246 695 664.246 695 664.243L695 622.573C695 607.897 706.895 596 721.567 596 736.24 596 748.135 607.897 748.135 622.573L748.135 664.243C748.138 678.915 736.245 690.813 721.574 690.816 721.572 690.816 721.57 690.816 721.567 690.816ZM803.357 690.816C788.688 690.819 776.793 678.922 776.79 664.25 776.79 664.246 776.79 664.246 776.79 664.243L776.79 622.573C776.79 607.897 788.684 596 803.357 596 818.03 596 829.924 607.897 829.924 622.573L829.924 664.243C829.924 678.919 818.03 690.816 803.357 690.816ZM1617.68 847.23 1148.18 847.23C1133.51 847.23 1121.62 835.333 1121.62 820.656 1121.62 805.98 1133.51 794.083 1148.18 794.083L1617.68 794.083C1632.35 794.083 1644.25 805.98 1644.25 820.656 1644.25 835.333 1632.35 847.23 1617.68 847.23ZM1617.68 937.272 972.225 937.272C957.552 937.272 945.658 925.375 945.658 910.698 945.658 896.022 957.552 884.125 972.225 884.125L1617.68 884.125C1632.35 884.125 1644.25 896.022 1644.25 910.698 1644.25 925.375 1632.35 937.272 1617.68 937.272ZM1854.43 1253.59C1839.76 1253.6 1827.87 1241.7 1827.87 1227.03 1827.87 1227.02 1827.87 1227.02 1827.87 1227.02L1827.87 1185.35C1827.87 1170.67 1839.76 1158.78 1854.43 1158.78 1869.11 1158.78 1881 1170.67 1881 1185.35L1881 1227.02C1881 1241.7 1869.11 1253.59 1854.43 1253.59ZM1772.64 1253.59C1757.97 1253.6 1746.08 1241.7 1746.08 1227.03 1746.08 1227.02 1746.08 1227.02 1746.08 1227.02L1746.08 1185.35C1746.08 1170.67 1757.97 1158.78 1772.64 1158.78 1787.32 1158.78 1799.21 1170.67 1799.21 1185.35L1799.21 1227.02C1799.21 1241.7 1787.32 1253.59 1772.64 1253.59ZM1427.81 1410 958.319 1410C943.646 1410 931.752 1398.11 931.752 1383.43 931.752 1368.75 943.646 1356.86 958.319 1356.86L1427.81 1356.86C1442.48 1356.85 1454.38 1368.75 1454.38 1383.42 1454.38 1383.43 1454.38 1383.43 1454.38 1383.43 1454.38 1398.1 1442.49 1410 1427.82 1410 1427.82 1410 1427.82 1410 1427.81 1410ZM1427.81 1685.55 958.319 1685.55C943.646 1685.55 931.752 1673.65 931.752 1658.97 931.752 1644.3 943.646 1632.4 958.319 1632.4L1427.81 1632.4C1442.49 1632.4 1454.38 1644.3 1454.38 1658.97 1454.38 1673.65 1442.49 1685.55 1427.81 1685.55ZM1427.81 1790 958.319 1790C943.646 1790 931.752 1778.1 931.752 1763.43 931.752 1748.75 943.646 1736.85 958.319 1736.85L1427.81 1736.85C1442.48 1736.85 1454.38 1748.75 1454.38 1763.42 1454.38 1763.42 1454.38 1763.42 1454.38 1763.43 1454.38 1778.1 1442.49 1790 1427.82 1790 1427.82 1790 1427.82 1790 1427.81 1790ZM1603.77 1500.05 958.319 1500.05C943.646 1500.05 931.752 1488.15 931.752 1473.47 931.752 1458.8 943.646 1446.9 958.319 1446.9L1603.77 1446.9C1618.44 1446.9 1630.34 1458.79 1630.34 1473.47 1630.34 1473.47 1630.34 1473.47 1630.34 1473.47 1630.34 1488.15 1618.45 1500.04 1603.78 1500.05 1603.78 1500.05 1603.78 1500.05 1603.77 1500.05Z" fill="#EAEAE1" fill-rule="evenodd"/></g></svg>