<svg width="1610" height="1935" xmlns="http://www.w3.org/2000/svg" xmlns:xlink="http://www.w3.org/1999/xlink" xml:space="preserve" overflow="hidden"><defs><filter id="fx0" x="-10%" y="-10%" width="120%" height="120%" filterUnits="userSpaceOnUse" primitiveUnits="userSpaceOnUse"><feComponentTransfer color-interpolation-filters="sRGB"><feFuncR type="discrete" tableValues="0 0"/><feFuncG type="discrete" tableValues="0 0"/><feFuncB type="discrete" tableValues="0 0"/><feFuncA type="linear" slope="0.101961" intercept="0"/></feComponentTransfer><feGaussianBlur stdDeviation="3.05556 3.05556"/></filter><clipPath id="clip1"><rect x="478" y="185" width="1610" height="1935"/></clipPath><clipPath id="clip2"><path d="M540.823 197.5C513.031 197.5 490.5 220.031 490.5 247.824L490.5 2057.18C490.5 2084.97 513.031 2107.5 540.823 2107.5L2025.18 2107.5C2052.97 2107.5 2075.5 2084.97 2075.5 2057.18L2075.5 247.824C2075.5 220.031 2052.97 197.5 2025.18 197.5ZM478 185 2088 185 2088 2120 478 2120Z" fill-rule="evenodd" clip-rule="evenodd"/></clipPath><clipPath id="clip3"><rect x="1" y="1" width="1613" height="1936"/></clipPath></defs><g clip-path="url(#clip1)" transform="translate(-478 -185)"><g clip-path="url(#clip2)"><g clip-path="url(#clip3)" filter="url(#fx0)" transform="translate(477 184)"><g><path d="M13.5 63.8236C13.5 36.0307 36.0306 13.5002 63.8235 13.5002L1548.18 13.5002C1575.97 13.5002 1598.5 36.0307 1598.5 63.8236L1598.5 1873.18C1598.5 1900.97 1575.97 1923.5 1548.18 1923.5L63.8235 1923.5C36.0306 1923.5 13.5 1900.97 13.5 1873.18Z" stroke="#F2F2F2" stroke-width="5" stroke-miterlimit="8" fill="#FFFFFF" fill-rule="evenodd"/></g></g></g><path d="M490.5 247.824C490.5 220.031 513.031 197.5 540.823 197.5L2025.18 197.5C2052.97 197.5 2075.5 220.031 2075.5 247.824L2075.5 2057.18C2075.5 2084.97 2052.97 2107.5 2025.18 2107.5L540.823 2107.5C513.031 2107.5 490.5 2084.97 490.5 2057.18Z" stroke="#F2F2F2" stroke-width="4.58333" stroke-miterlimit="8" fill="#FFFFFF" fill-rule="evenodd"/></g></svg>