<svg width="1186" height="1194" xmlns="http://www.w3.org/2000/svg" xmlns:xlink="http://www.w3.org/1999/xlink"
    xml:space="preserve" overflow="hidden">
    <defs>
        <clipPath id="clip0">
            <rect x="695" y="596" width="1186" height="1194" />
        </clipPath>
    </defs>
    <g clip-path="url(#clip0)" transform="translate(-695 -596)">
        <path
            d="M721.567 690.816C706.897 690.819 695.002 678.922 695 664.25 695 664.246 695 664.246 695 664.243L695 622.573C695 607.897 706.895 596 721.567 596 736.24 596 748.135 607.897 748.135 622.573L748.135 664.243C748.138 678.915 736.245 690.813 721.574 690.816 721.572 690.816 721.57 690.816 721.567 690.816ZM803.357 690.816C788.688 690.819 776.793 678.922 776.79 664.25 776.79 664.246 776.79 664.246 776.79 664.243L776.79 622.573C776.79 607.897 788.684 596 803.357 596 818.03 596 829.924 607.897 829.924 622.573L829.924 664.243C829.924 678.919 818.03 690.816 803.357 690.816ZM1617.68 847.23 1148.18 847.23C1133.51 847.23 1121.62 835.333 1121.62 820.656 1121.62 805.98 1133.51 794.083 1148.18 794.083L1617.68 794.083C1632.35 794.083 1644.25 805.98 1644.25 820.656 1644.25 835.333 1632.35 847.23 1617.68 847.23ZM1617.68 937.272 972.225 937.272C957.552 937.272 945.658 925.375 945.658 910.698 945.658 896.022 957.552 884.125 972.225 884.125L1617.68 884.125C1632.35 884.125 1644.25 896.022 1644.25 910.698 1644.25 925.375 1632.35 937.272 1617.68 937.272ZM1854.43 1253.59C1839.76 1253.6 1827.87 1241.7 1827.87 1227.03 1827.87 1227.02 1827.87 1227.02 1827.87 1227.02L1827.87 1185.35C1827.87 1170.67 1839.76 1158.78 1854.43 1158.78 1869.11 1158.78 1881 1170.67 1881 1185.35L1881 1227.02C1881 1241.7 1869.11 1253.59 1854.43 1253.59ZM1772.64 1253.59C1757.97 1253.6 1746.08 1241.7 1746.08 1227.03 1746.08 1227.02 1746.08 1227.02 1746.08 1227.02L1746.08 1185.35C1746.08 1170.67 1757.97 1158.78 1772.64 1158.78 1787.32 1158.78 1799.21 1170.67 1799.21 1185.35L1799.21 1227.02C1799.21 1241.7 1787.32 1253.59 1772.64 1253.59ZM1427.81 1410 958.319 1410C943.646 1410 931.752 1398.11 931.752 1383.43 931.752 1368.75 943.646 1356.86 958.319 1356.86L1427.81 1356.86C1442.48 1356.85 1454.38 1368.75 1454.38 1383.42 1454.38 1383.43 1454.38 1383.43 1454.38 1383.43 1454.38 1398.1 1442.49 1410 1427.82 1410 1427.82 1410 1427.82 1410 1427.81 1410ZM1427.81 1685.55 958.319 1685.55C943.646 1685.55 931.752 1673.65 931.752 1658.97 931.752 1644.3 943.646 1632.4 958.319 1632.4L1427.81 1632.4C1442.49 1632.4 1454.38 1644.3 1454.38 1658.97 1454.38 1673.65 1442.49 1685.55 1427.81 1685.55ZM1427.81 1790 958.319 1790C943.646 1790 931.752 1778.1 931.752 1763.43 931.752 1748.75 943.646 1736.85 958.319 1736.85L1427.81 1736.85C1442.48 1736.85 1454.38 1748.75 1454.38 1763.42 1454.38 1763.42 1454.38 1763.42 1454.38 1763.43 1454.38 1778.1 1442.49 1790 1427.82 1790 1427.82 1790 1427.82 1790 1427.81 1790ZM1603.77 1500.05 958.319 1500.05C943.646 1500.05 931.752 1488.15 931.752 1473.47 931.752 1458.8 943.646 1446.9 958.319 1446.9L1603.77 1446.9C1618.44 1446.9 1630.34 1458.79 1630.34 1473.47 1630.34 1473.47 1630.34 1473.47 1630.34 1473.47 1630.34 1488.15 1618.45 1500.04 1603.78 1500.05 1603.78 1500.05 1603.78 1500.05 1603.77 1500.05Z"
            fill="#EAEAE1" fill-rule="evenodd" />
    </g>
</svg>