<svg width="1358" height="886" xmlns="http://www.w3.org/2000/svg" xmlns:xlink="http://www.w3.org/1999/xlink" xml:space="preserve" overflow="hidden"><defs><clipPath id="clip0"><rect x="804" y="1039" width="1358" height="886"/></clipPath></defs><g clip-path="url(#clip0)" transform="translate(-804 -1039)"><path d="M890.017 1039 1930.92 1039C1978.42 1039 2016.93 1077.51 2016.93 1125L2016.93 1235.7 2135.74 1320.43C2170.94 1345.54 2170.71 1397.92 2135.29 1422.72L2016.93 1505.57 2016.93 1839C2016.93 1886.49 1978.42 1925 1930.92 1925L890.017 1925C842.513 1925 804 1886.49 804 1839L804 1125C803.996 1077.51 842.509 1039 890.017 1039Z" fill="#C381D5" fill-rule="evenodd"/><path d="M804 1838.75 804 1760C804 1807.64 842.511 1846.25 890.021 1846.25L1930.98 1846.25C1978.49 1846.25 2017 1807.64 2017 1760L2017 1838.75C2017 1886.39 1978.49 1925 1930.98 1925L890.017 1925C842.511 1925 804 1886.38 804 1838.75Z" fill="#A759C9" fill-rule="evenodd"/></g></svg>